<mxfile host="Electron" agent="Mozilla/5.0 (Windows NT 10.0; Win64; x64) AppleWebKit/537.36 (KHTML, like Gecko) draw.io/24.7.5 Chrome/126.0.6478.183 Electron/31.3.0 Safari/537.36" version="24.7.5" pages="5">
  <diagram id="C55WDjbCwimp81ckpNpN" name="Page-5">
    <mxGraphModel dx="1066" dy="461" grid="1" gridSize="10" guides="1" tooltips="1" connect="1" arrows="1" fold="1" page="1" pageScale="1" pageWidth="850" pageHeight="1100" math="0" shadow="0">
      <root>
        <mxCell id="0" />
        <mxCell id="1" parent="0" />
        <mxCell id="0OJ5gS6AcOFM8c3bnXoH-1" value="&lt;font style=&quot;font-size: 18px;&quot;&gt;docker images&amp;nbsp;&lt;/font&gt;" style="rounded=0;whiteSpace=wrap;html=1;fillColor=#dae8fc;strokeColor=#6c8ebf;" vertex="1" parent="1">
          <mxGeometry x="490" y="340" width="140" height="60" as="geometry" />
        </mxCell>
        <mxCell id="0OJ5gS6AcOFM8c3bnXoH-2" value="&lt;font style=&quot;font-size: 18px;&quot;&gt;docker pull &amp;lt;image name&amp;gt;&lt;/font&gt;" style="rounded=0;whiteSpace=wrap;html=1;fillColor=#dae8fc;strokeColor=#6c8ebf;" vertex="1" parent="1">
          <mxGeometry x="490" y="270" width="260" height="60" as="geometry" />
        </mxCell>
        <mxCell id="0OJ5gS6AcOFM8c3bnXoH-3" value="" style="shape=curlyBracket;whiteSpace=wrap;html=1;rounded=1;flipH=1;labelPosition=right;verticalLabelPosition=middle;align=left;verticalAlign=middle;" vertex="1" parent="1">
          <mxGeometry x="640" y="340" width="30" height="60" as="geometry" />
        </mxCell>
        <mxCell id="0OJ5gS6AcOFM8c3bnXoH-4" value="&lt;font style=&quot;font-size: 20px;&quot;&gt;List the Images&lt;/font&gt;" style="text;html=1;align=center;verticalAlign=middle;resizable=0;points=[];autosize=1;strokeColor=none;fillColor=none;" vertex="1" parent="1">
          <mxGeometry x="660" y="350" width="160" height="40" as="geometry" />
        </mxCell>
        <mxCell id="0OJ5gS6AcOFM8c3bnXoH-5" value="" style="shape=curlyBracket;whiteSpace=wrap;html=1;rounded=1;flipH=1;labelPosition=right;verticalLabelPosition=middle;align=left;verticalAlign=middle;" vertex="1" parent="1">
          <mxGeometry x="760" y="270" width="30" height="60" as="geometry" />
        </mxCell>
        <mxCell id="0OJ5gS6AcOFM8c3bnXoH-6" value="&lt;font style=&quot;font-size: 20px;&quot;&gt;Download an Image from DockerHub&lt;/font&gt;" style="text;html=1;align=center;verticalAlign=middle;resizable=0;points=[];autosize=1;strokeColor=none;fillColor=none;" vertex="1" parent="1">
          <mxGeometry x="780" y="280" width="350" height="40" as="geometry" />
        </mxCell>
        <mxCell id="0OJ5gS6AcOFM8c3bnXoH-7" value="&lt;font style=&quot;font-size: 18px;&quot;&gt;docker rm &amp;lt;image id&amp;gt;&lt;/font&gt;" style="rounded=0;whiteSpace=wrap;html=1;fillColor=#dae8fc;strokeColor=#6c8ebf;" vertex="1" parent="1">
          <mxGeometry x="490" y="410" width="260" height="60" as="geometry" />
        </mxCell>
        <mxCell id="0OJ5gS6AcOFM8c3bnXoH-8" value="" style="shape=curlyBracket;whiteSpace=wrap;html=1;rounded=1;flipH=1;labelPosition=right;verticalLabelPosition=middle;align=left;verticalAlign=middle;" vertex="1" parent="1">
          <mxGeometry x="760" y="410" width="30" height="60" as="geometry" />
        </mxCell>
        <mxCell id="0OJ5gS6AcOFM8c3bnXoH-9" value="&lt;font style=&quot;font-size: 20px;&quot;&gt;Remove an Image&lt;/font&gt;" style="text;whiteSpace=wrap;html=1;fontFamily=Helvetica;fontSize=12;fontColor=default;autosize=1;resizable=0;" vertex="1" parent="1">
          <mxGeometry x="790" y="420" width="190" height="40" as="geometry" />
        </mxCell>
        <mxCell id="0OJ5gS6AcOFM8c3bnXoH-10" value="&lt;font style=&quot;font-size: 18px;&quot;&gt;docker build -t &amp;lt;image name&amp;gt;&lt;/font&gt;" style="rounded=0;whiteSpace=wrap;html=1;fillColor=#dae8fc;strokeColor=#6c8ebf;" vertex="1" parent="1">
          <mxGeometry x="490" y="480" width="260" height="60" as="geometry" />
        </mxCell>
        <mxCell id="0OJ5gS6AcOFM8c3bnXoH-11" value="" style="shape=curlyBracket;whiteSpace=wrap;html=1;rounded=1;flipH=1;labelPosition=right;verticalLabelPosition=middle;align=left;verticalAlign=middle;" vertex="1" parent="1">
          <mxGeometry x="760" y="480" width="30" height="60" as="geometry" />
        </mxCell>
        <mxCell id="0OJ5gS6AcOFM8c3bnXoH-12" value="&lt;font style=&quot;font-size: 20px;&quot;&gt;Build an Image from Dockerfile&lt;/font&gt;" style="text;whiteSpace=wrap;html=1;fontFamily=Helvetica;fontSize=12;fontColor=default;autosize=1;resizable=0;" vertex="1" parent="1">
          <mxGeometry x="790" y="490" width="300" height="40" as="geometry" />
        </mxCell>
      </root>
    </mxGraphModel>
  </diagram>
  <diagram name="dev &amp; prod" id="ApBVre0AJjkp96kj62DA">
    <mxGraphModel dx="873" dy="542" grid="1" gridSize="10" guides="1" tooltips="1" connect="1" arrows="1" fold="1" page="1" pageScale="1" pageWidth="850" pageHeight="1100" math="0" shadow="0">
      <root>
        <mxCell id="0" />
        <mxCell id="1" parent="0" />
        <mxCell id="6eEB3IUL_KPQKWAhz3xC-1" value="" style="rounded=0;whiteSpace=wrap;html=1;fillColor=#dae8fc;strokeColor=#6c8ebf;" vertex="1" parent="1">
          <mxGeometry x="110" y="120" width="250" height="370" as="geometry" />
        </mxCell>
        <mxCell id="6eEB3IUL_KPQKWAhz3xC-2" value="&lt;font style=&quot;font-size: 20px;&quot;&gt;Docker Desktop&lt;/font&gt;" style="rounded=0;whiteSpace=wrap;html=1;align=center;" vertex="1" parent="1">
          <mxGeometry x="145" y="200" width="180" height="80" as="geometry" />
        </mxCell>
        <mxCell id="6eEB3IUL_KPQKWAhz3xC-3" value="&lt;font style=&quot;font-size: 22px;&quot;&gt;&lt;b&gt;Development&lt;/b&gt;&lt;/font&gt;" style="text;html=1;align=center;verticalAlign=middle;whiteSpace=wrap;rounded=0;" vertex="1" parent="1">
          <mxGeometry x="205" y="140" width="60" height="30" as="geometry" />
        </mxCell>
        <mxCell id="6eEB3IUL_KPQKWAhz3xC-5" value="&lt;font style=&quot;font-size: 20px;&quot;&gt;minikube&lt;/font&gt;" style="rounded=0;whiteSpace=wrap;html=1;align=center;" vertex="1" parent="1">
          <mxGeometry x="145" y="300" width="180" height="80" as="geometry" />
        </mxCell>
        <mxCell id="6eEB3IUL_KPQKWAhz3xC-6" value="" style="rounded=0;whiteSpace=wrap;html=1;fillColor=#d5e8d4;strokeColor=#82b366;" vertex="1" parent="1">
          <mxGeometry x="390" y="120" width="260" height="370" as="geometry" />
        </mxCell>
        <mxCell id="6eEB3IUL_KPQKWAhz3xC-7" value="&lt;font style=&quot;font-size: 20px;&quot;&gt;Amazon Elastic Container Service&lt;b&gt;(EKS)&lt;/b&gt;&lt;/font&gt;" style="rounded=0;whiteSpace=wrap;html=1;align=center;" vertex="1" parent="1">
          <mxGeometry x="400" y="190" width="240" height="80" as="geometry" />
        </mxCell>
        <mxCell id="6eEB3IUL_KPQKWAhz3xC-8" value="&lt;font style=&quot;font-size: 22px;&quot;&gt;&lt;b&gt;Production&lt;/b&gt;&lt;/font&gt;" style="text;html=1;align=center;verticalAlign=middle;whiteSpace=wrap;rounded=0;" vertex="1" parent="1">
          <mxGeometry x="495" y="140" width="60" height="30" as="geometry" />
        </mxCell>
        <mxCell id="6eEB3IUL_KPQKWAhz3xC-9" value="&lt;font style=&quot;font-size: 20px;&quot;&gt;Google Cloud Kubernetes Engine&lt;b&gt;(GKE)&lt;/b&gt;&lt;/font&gt;" style="rounded=0;whiteSpace=wrap;html=1;align=center;" vertex="1" parent="1">
          <mxGeometry x="400" y="280" width="240" height="80" as="geometry" />
        </mxCell>
        <mxCell id="6eEB3IUL_KPQKWAhz3xC-10" value="&lt;span style=&quot;font-size: 20px;&quot;&gt;Do by yourself&lt;/span&gt;" style="rounded=0;whiteSpace=wrap;html=1;align=center;" vertex="1" parent="1">
          <mxGeometry x="400" y="380" width="240" height="80" as="geometry" />
        </mxCell>
        <mxCell id="6eEB3IUL_KPQKWAhz3xC-11" value="" style="shape=curlyBracket;whiteSpace=wrap;html=1;rounded=1;flipH=1;labelPosition=right;verticalLabelPosition=middle;align=left;verticalAlign=middle;" vertex="1" parent="1">
          <mxGeometry x="640" y="210" width="50" height="120" as="geometry" />
        </mxCell>
        <mxCell id="6eEB3IUL_KPQKWAhz3xC-15" value="&lt;font style=&quot;font-size: 18px;&quot;&gt;&lt;b&gt;Managed Solutions&lt;/b&gt;&lt;/font&gt;" style="text;html=1;align=center;verticalAlign=middle;whiteSpace=wrap;rounded=0;" vertex="1" parent="1">
          <mxGeometry x="700" y="255" width="60" height="30" as="geometry" />
        </mxCell>
      </root>
    </mxGraphModel>
  </diagram>
  <diagram name="if Docker Desktop" id="u3jkeGB_vchFlOoTEtLP">
    <mxGraphModel dx="2450" dy="774" grid="1" gridSize="10" guides="1" tooltips="1" connect="1" arrows="1" fold="1" page="1" pageScale="1" pageWidth="850" pageHeight="1100" math="0" shadow="0">
      <root>
        <mxCell id="554fNMTDU9Tak1QRMhSy-0" />
        <mxCell id="554fNMTDU9Tak1QRMhSy-1" parent="554fNMTDU9Tak1QRMhSy-0" />
        <mxCell id="554fNMTDU9Tak1QRMhSy-2" value="" style="rounded=0;whiteSpace=wrap;html=1;fillColor=#dae8fc;strokeColor=#6c8ebf;" parent="554fNMTDU9Tak1QRMhSy-1" vertex="1">
          <mxGeometry x="-190" y="210" width="490" height="250" as="geometry" />
        </mxCell>
        <mxCell id="554fNMTDU9Tak1QRMhSy-3" value="" style="rounded=0;whiteSpace=wrap;html=1;fillColor=#d5e8d4;strokeColor=#82b366;" parent="554fNMTDU9Tak1QRMhSy-1" vertex="1">
          <mxGeometry x="-70" y="230" width="350" height="210" as="geometry" />
        </mxCell>
        <mxCell id="554fNMTDU9Tak1QRMhSy-4" value="&lt;font style=&quot;font-size: 18px;&quot;&gt;&lt;b&gt;Virtual Machine (Node) Created By Docker&lt;/b&gt;&lt;/font&gt;" style="text;html=1;align=center;verticalAlign=middle;whiteSpace=wrap;rounded=0;" parent="554fNMTDU9Tak1QRMhSy-1" vertex="1">
          <mxGeometry x="-50" y="250" width="325" height="30" as="geometry" />
        </mxCell>
        <mxCell id="554fNMTDU9Tak1QRMhSy-5" value="&lt;font style=&quot;font-size: 18px;&quot;&gt;Container&lt;/font&gt;" style="rounded=0;whiteSpace=wrap;html=1;" parent="554fNMTDU9Tak1QRMhSy-1" vertex="1">
          <mxGeometry x="150" y="290" width="120" height="60" as="geometry" />
        </mxCell>
        <mxCell id="554fNMTDU9Tak1QRMhSy-6" value="&lt;font style=&quot;font-size: 18px;&quot;&gt;Container&lt;/font&gt;" style="rounded=0;whiteSpace=wrap;html=1;" parent="554fNMTDU9Tak1QRMhSy-1" vertex="1">
          <mxGeometry x="150" y="374" width="120" height="60" as="geometry" />
        </mxCell>
        <mxCell id="554fNMTDU9Tak1QRMhSy-7" value="&lt;font style=&quot;font-size: 20px;&quot;&gt;&lt;b&gt;Your Computer&lt;/b&gt;&lt;/font&gt;" style="text;html=1;align=center;verticalAlign=middle;whiteSpace=wrap;rounded=0;" parent="554fNMTDU9Tak1QRMhSy-1" vertex="1">
          <mxGeometry x="-180" y="180" width="170" height="30" as="geometry" />
        </mxCell>
        <mxCell id="9avqU4ipxXI-FPX1RxJg-0" style="edgeStyle=orthogonalEdgeStyle;rounded=0;orthogonalLoop=1;jettySize=auto;html=1;entryX=0;entryY=0.5;entryDx=0;entryDy=0;" parent="554fNMTDU9Tak1QRMhSy-1" source="554fNMTDU9Tak1QRMhSy-10" target="554fNMTDU9Tak1QRMhSy-5" edge="1">
          <mxGeometry relative="1" as="geometry" />
        </mxCell>
        <mxCell id="9avqU4ipxXI-FPX1RxJg-1" style="edgeStyle=orthogonalEdgeStyle;rounded=0;orthogonalLoop=1;jettySize=auto;html=1;entryX=0;entryY=0.5;entryDx=0;entryDy=0;" parent="554fNMTDU9Tak1QRMhSy-1" source="554fNMTDU9Tak1QRMhSy-10" target="554fNMTDU9Tak1QRMhSy-6" edge="1">
          <mxGeometry relative="1" as="geometry" />
        </mxCell>
        <mxCell id="554fNMTDU9Tak1QRMhSy-10" value="&lt;font style=&quot;font-size: 18px;&quot;&gt;kubectl&lt;/font&gt;" style="rounded=0;whiteSpace=wrap;html=1;" parent="554fNMTDU9Tak1QRMhSy-1" vertex="1">
          <mxGeometry x="-30" y="330" width="120" height="60" as="geometry" />
        </mxCell>
        <mxCell id="70xc6osTkfJEwa-0gWor-0" style="edgeStyle=orthogonalEdgeStyle;rounded=0;orthogonalLoop=1;jettySize=auto;html=1;exitX=0.5;exitY=1;exitDx=0;exitDy=0;" parent="554fNMTDU9Tak1QRMhSy-1" source="554fNMTDU9Tak1QRMhSy-4" target="554fNMTDU9Tak1QRMhSy-4" edge="1">
          <mxGeometry relative="1" as="geometry" />
        </mxCell>
        <mxCell id="4BsFANsiTnCevrefqFPn-1" style="edgeStyle=orthogonalEdgeStyle;rounded=0;orthogonalLoop=1;jettySize=auto;html=1;" parent="554fNMTDU9Tak1QRMhSy-1" source="4BsFANsiTnCevrefqFPn-0" edge="1">
          <mxGeometry relative="1" as="geometry">
            <mxPoint x="-80" y="360" as="targetPoint" />
          </mxGeometry>
        </mxCell>
        <mxCell id="4BsFANsiTnCevrefqFPn-0" value="&lt;font style=&quot;font-size: 18px;&quot;&gt;Just Enable&lt;/font&gt;" style="text;html=1;align=center;verticalAlign=middle;whiteSpace=wrap;rounded=0;" parent="554fNMTDU9Tak1QRMhSy-1" vertex="1">
          <mxGeometry x="-390" y="345" width="180" height="30" as="geometry" />
        </mxCell>
      </root>
    </mxGraphModel>
  </diagram>
  <diagram id="H3DR5bS1cNQyYIeCZSoT" name="if minikube">
    <mxGraphModel dx="880" dy="542" grid="1" gridSize="10" guides="1" tooltips="1" connect="1" arrows="1" fold="1" page="1" pageScale="1" pageWidth="850" pageHeight="1100" math="0" shadow="0">
      <root>
        <mxCell id="0" />
        <mxCell id="1" parent="0" />
        <mxCell id="eWcPETu89yUyq2CBPaOC-1" value="" style="rounded=0;whiteSpace=wrap;html=1;fillColor=#dae8fc;strokeColor=#6c8ebf;" parent="1" vertex="1">
          <mxGeometry x="240" y="190" width="470" height="250" as="geometry" />
        </mxCell>
        <mxCell id="eWcPETu89yUyq2CBPaOC-2" value="" style="rounded=0;whiteSpace=wrap;html=1;fillColor=#d5e8d4;strokeColor=#82b366;" parent="1" vertex="1">
          <mxGeometry x="530" y="210" width="160" height="210" as="geometry" />
        </mxCell>
        <mxCell id="eWcPETu89yUyq2CBPaOC-3" value="&lt;font style=&quot;font-size: 18px;&quot;&gt;&lt;b&gt;Virtual Machine (Node)&lt;/b&gt;&lt;/font&gt;" style="text;html=1;align=center;verticalAlign=middle;whiteSpace=wrap;rounded=0;" parent="1" vertex="1">
          <mxGeometry x="535" y="230" width="150" height="30" as="geometry" />
        </mxCell>
        <mxCell id="eWcPETu89yUyq2CBPaOC-5" value="&lt;font style=&quot;font-size: 18px;&quot;&gt;Container&lt;/font&gt;" style="rounded=0;whiteSpace=wrap;html=1;" parent="1" vertex="1">
          <mxGeometry x="550" y="285" width="120" height="60" as="geometry" />
        </mxCell>
        <mxCell id="eWcPETu89yUyq2CBPaOC-6" value="&lt;font style=&quot;font-size: 18px;&quot;&gt;Container&lt;/font&gt;" style="rounded=0;whiteSpace=wrap;html=1;" parent="1" vertex="1">
          <mxGeometry x="550" y="354" width="120" height="60" as="geometry" />
        </mxCell>
        <mxCell id="eWcPETu89yUyq2CBPaOC-7" value="&lt;font style=&quot;font-size: 20px;&quot;&gt;&lt;b&gt;Your Computer&lt;/b&gt;&lt;/font&gt;" style="text;html=1;align=center;verticalAlign=middle;whiteSpace=wrap;rounded=0;" parent="1" vertex="1">
          <mxGeometry x="230" y="160" width="170" height="30" as="geometry" />
        </mxCell>
        <mxCell id="eWcPETu89yUyq2CBPaOC-11" style="edgeStyle=orthogonalEdgeStyle;rounded=0;orthogonalLoop=1;jettySize=auto;html=1;" parent="1" source="eWcPETu89yUyq2CBPaOC-10" target="eWcPETu89yUyq2CBPaOC-5" edge="1">
          <mxGeometry relative="1" as="geometry" />
        </mxCell>
        <mxCell id="eWcPETu89yUyq2CBPaOC-12" style="edgeStyle=orthogonalEdgeStyle;rounded=0;orthogonalLoop=1;jettySize=auto;html=1;entryX=0;entryY=0.5;entryDx=0;entryDy=0;" parent="1" source="eWcPETu89yUyq2CBPaOC-10" target="eWcPETu89yUyq2CBPaOC-6" edge="1">
          <mxGeometry relative="1" as="geometry" />
        </mxCell>
        <mxCell id="eWcPETu89yUyq2CBPaOC-10" value="&lt;font style=&quot;font-size: 18px;&quot;&gt;kubectl&lt;/font&gt;" style="rounded=0;whiteSpace=wrap;html=1;" parent="1" vertex="1">
          <mxGeometry x="255" y="225" width="120" height="60" as="geometry" />
        </mxCell>
        <mxCell id="eWcPETu89yUyq2CBPaOC-13" value="&lt;font style=&quot;font-size: 18px;&quot;&gt;A CLI, Used for managing the containers on the node&lt;/font&gt;" style="text;html=1;align=center;verticalAlign=middle;whiteSpace=wrap;rounded=0;" parent="1" vertex="1">
          <mxGeometry x="10" y="240" width="220" height="30" as="geometry" />
        </mxCell>
        <mxCell id="eWcPETu89yUyq2CBPaOC-14" value="&lt;font style=&quot;font-size: 18px;&quot;&gt;minikube&lt;/font&gt;" style="rounded=0;whiteSpace=wrap;html=1;" parent="1" vertex="1">
          <mxGeometry x="255" y="360" width="120" height="60" as="geometry" />
        </mxCell>
        <mxCell id="eWcPETu89yUyq2CBPaOC-15" value="&lt;font style=&quot;font-size: 18px;&quot;&gt;Used for managing the VM itself&lt;/font&gt;" style="text;html=1;align=right;verticalAlign=middle;whiteSpace=wrap;rounded=0;" parent="1" vertex="1">
          <mxGeometry x="30" y="384" width="200" height="30" as="geometry" />
        </mxCell>
        <mxCell id="eWcPETu89yUyq2CBPaOC-16" style="edgeStyle=orthogonalEdgeStyle;rounded=0;orthogonalLoop=1;jettySize=auto;html=1;entryX=0;entryY=0.948;entryDx=0;entryDy=0;entryPerimeter=0;strokeWidth=2;" parent="1" source="eWcPETu89yUyq2CBPaOC-14" target="eWcPETu89yUyq2CBPaOC-2" edge="1">
          <mxGeometry relative="1" as="geometry" />
        </mxCell>
      </root>
    </mxGraphModel>
  </diagram>
  <diagram id="xI8IpXalujGnlh1gk0Ms" name="Steps">
    <mxGraphModel dx="873" dy="542" grid="1" gridSize="10" guides="1" tooltips="1" connect="1" arrows="1" fold="1" page="1" pageScale="1" pageWidth="850" pageHeight="1100" math="0" shadow="0">
      <root>
        <mxCell id="0" />
        <mxCell id="1" parent="0" />
        <mxCell id="kESKYomRK1j2I-nGJSvJ-1" value="&lt;font style=&quot;font-size: 18px;&quot;&gt;Install kubectl&lt;/font&gt;" style="rounded=0;whiteSpace=wrap;html=1;" vertex="1" parent="1">
          <mxGeometry x="230" y="230" width="255" height="75" as="geometry" />
        </mxCell>
        <mxCell id="ov5mvoKOfJBo4QLAlWnt-1" value="&lt;font style=&quot;font-size: 18px;&quot;&gt;Install a VM Driver&lt;br&gt;(VirtualBox)&lt;/font&gt;" style="rounded=0;whiteSpace=wrap;html=1;" vertex="1" parent="1">
          <mxGeometry x="230" y="330" width="255" height="75" as="geometry" />
        </mxCell>
        <mxCell id="ov5mvoKOfJBo4QLAlWnt-2" value="&lt;font style=&quot;font-size: 18px;&quot;&gt;Install minikube&lt;/font&gt;" style="rounded=0;whiteSpace=wrap;html=1;" vertex="1" parent="1">
          <mxGeometry x="230" y="430" width="255" height="75" as="geometry" />
        </mxCell>
        <mxCell id="0CdbqdnMT9bAo9GxkeZR-1" value="&lt;font style=&quot;font-size: 18px;&quot;&gt;CLI for interacting with K8s&lt;/font&gt;" style="text;html=1;align=center;verticalAlign=middle;whiteSpace=wrap;rounded=0;" vertex="1" parent="1">
          <mxGeometry x="520" y="252.5" width="250" height="30" as="geometry" />
        </mxCell>
        <mxCell id="0CdbqdnMT9bAo9GxkeZR-2" value="&lt;font style=&quot;font-size: 18px;&quot;&gt;Used to make a VM&lt;/font&gt;" style="text;html=1;align=center;verticalAlign=middle;whiteSpace=wrap;rounded=0;" vertex="1" parent="1">
          <mxGeometry x="530" y="350" width="180" height="30" as="geometry" />
        </mxCell>
        <mxCell id="0CdbqdnMT9bAo9GxkeZR-3" value="&lt;font style=&quot;font-size: 18px;&quot;&gt;Runs a single node on that VM&lt;/font&gt;" style="text;html=1;align=center;verticalAlign=middle;whiteSpace=wrap;rounded=0;" vertex="1" parent="1">
          <mxGeometry x="530" y="452.5" width="260" height="30" as="geometry" />
        </mxCell>
        <mxCell id="0CdbqdnMT9bAo9GxkeZR-4" value="" style="shape=curlyBracket;whiteSpace=wrap;html=1;rounded=1;flipH=1;labelPosition=right;verticalLabelPosition=middle;align=left;verticalAlign=middle;" vertex="1" parent="1">
          <mxGeometry x="490" y="230" width="40" height="70" as="geometry" />
        </mxCell>
        <mxCell id="0CdbqdnMT9bAo9GxkeZR-7" value="" style="shape=curlyBracket;whiteSpace=wrap;html=1;rounded=1;flipH=1;labelPosition=right;verticalLabelPosition=middle;align=left;verticalAlign=middle;size=0.5;" vertex="1" parent="1">
          <mxGeometry x="490" y="330" width="40" height="70" as="geometry" />
        </mxCell>
        <mxCell id="0CdbqdnMT9bAo9GxkeZR-8" value="" style="shape=curlyBracket;whiteSpace=wrap;html=1;rounded=1;flipH=1;labelPosition=right;verticalLabelPosition=middle;align=left;verticalAlign=middle;size=0.5;" vertex="1" parent="1">
          <mxGeometry x="490" y="432.5" width="40" height="70" as="geometry" />
        </mxCell>
      </root>
    </mxGraphModel>
  </diagram>
</mxfile>
